<svg width="29" height="21" viewBox="0 0 29 21" fill="none" xmlns="http://www.w3.org/2000/svg">
<rect width="29" height="21" rx="3" fill="#ED1C24" fill-opacity="0.8"/>
<path d="M4.24858 16L5.93892 5.81818H8.09162L7.3956 10.0192H11.7656L12.4616 5.81818H14.6094L12.919 16H10.7713L11.4673 11.794H7.0973L6.40128 16H4.24858ZM18.353 16H14.6939L16.3842 5.81818H19.9737C20.9979 5.81818 21.848 6.02699 22.5241 6.4446C23.2036 6.86222 23.6825 7.46046 23.9609 8.23935C24.2393 9.01491 24.2891 9.94129 24.1101 11.0185C23.9377 12.0592 23.5947 12.9524 23.081 13.6982C22.5672 14.4406 21.9093 15.0107 21.1072 15.4084C20.3052 15.8028 19.3871 16 18.353 16ZM17.1548 14.1555H18.4773C19.117 14.1555 19.6771 14.0362 20.1577 13.7976C20.6416 13.5589 21.0376 13.1911 21.3459 12.6939C21.6574 12.1967 21.8778 11.5604 22.0071 10.7848C22.1297 10.049 22.1214 9.45241 21.9822 8.99503C21.8464 8.53433 21.5829 8.19792 21.1918 7.9858C20.8007 7.77036 20.2869 7.66264 19.6506 7.66264H18.2337L17.1548 14.1555Z" fill="white"/>
</svg>
