<svg width="21" height="20" viewBox="0 0 21 20" fill="none" xmlns="http://www.w3.org/2000/svg">
<path d="M12.6667 6.66669H18C18.442 6.66669 18.8659 6.84228 19.1785 7.15484C19.4911 7.4674 19.6667 7.89133 19.6667 8.33335V10.0867C19.6669 10.3045 19.6244 10.5202 19.5417 10.7217L16.9625 16.9842C16.8996 17.1369 16.7927 17.2674 16.6555 17.3593C16.5182 17.4511 16.3568 17.5001 16.1917 17.5H2.16666C1.94565 17.5 1.73369 17.4122 1.57741 17.2559C1.42113 17.0997 1.33333 16.8877 1.33333 16.6667V8.33335C1.33333 8.11234 1.42113 7.90038 1.57741 7.7441C1.73369 7.58782 1.94565 7.50002 2.16666 7.50002H5.06833C5.20174 7.50005 5.33321 7.46806 5.45169 7.40672C5.57017 7.34538 5.67218 7.25649 5.74916 7.14752L10.2933 0.708355C10.3508 0.626949 10.4355 0.568822 10.5321 0.544513C10.6287 0.520205 10.7309 0.531324 10.82 0.575855L12.3317 1.33169C12.7571 1.54432 13.0969 1.89612 13.2948 2.32862C13.4926 2.76112 13.5365 3.24829 13.4192 3.70919L12.6667 6.66669ZM6.33333 8.82335V15.8334H15.6333L18 10.0867V8.33335H12.6667C12.4128 8.33332 12.1624 8.2753 11.9344 8.16374C11.7064 8.05217 11.5068 7.89 11.3511 7.68959C11.1953 7.48919 11.0873 7.25585 11.0354 7.00737C10.9835 6.7589 10.9891 6.50186 11.0517 6.25585L11.8042 3.29919C11.8277 3.20696 11.819 3.10945 11.7794 3.02288C11.7398 2.93631 11.6718 2.86589 11.5867 2.82335L11.0358 2.54835L7.11083 8.10835C6.90249 8.40335 6.63583 8.64502 6.33333 8.82335V8.82335ZM4.66666 9.16669H2.99999V15.8334H4.66666V9.16669Z" fill="#707070"/>
</svg>
