<svg width="224" height="49" viewBox="0 0 224 49" fill="none" xmlns="http://www.w3.org/2000/svg">
<path d="M64.978 25.448C66.898 26.536 67.858 28.1893 67.858 30.408C67.858 32.4773 67.186 34.0987 65.842 35.272C64.498 36.424 62.5674 37 60.05 37H50.578V14.6H59.474C61.9914 14.6 63.9114 15.144 65.234 16.232C66.5567 17.32 67.218 18.8773 67.218 20.904C67.218 22.8453 66.4714 24.36 64.978 25.448ZM59.09 20.104H56.978V23.112L59.442 23.08C60.3594 22.952 60.818 22.4613 60.818 21.608C60.818 21.1387 60.6474 20.776 60.306 20.52C59.986 20.2427 59.5807 20.104 59.09 20.104ZM56.978 31.496H59.666C60.178 31.496 60.6047 31.3467 60.946 31.048C61.2874 30.7493 61.458 30.3653 61.458 29.896C61.458 29 60.978 28.4773 60.018 28.328L56.978 28.296V31.496ZM75.553 21V24.104C75.8517 23.0373 76.4277 22.2053 77.281 21.608C78.1557 20.9893 79.1797 20.68 80.353 20.68V27.08C79.073 26.9093 77.953 27.1653 76.993 27.848C76.033 28.5307 75.553 29.5973 75.553 31.048V37H69.633V21H75.553ZM92.7013 22.44V21H98.6213V37H92.7013V35.56C91.6773 36.8187 90.2479 37.448 88.4133 37.448C86.2586 37.448 84.4986 36.648 83.1333 35.048C81.7679 33.4693 81.0853 31.4533 81.0853 29C81.0853 26.5467 81.7679 24.5307 83.1333 22.952C84.4986 21.352 86.2586 20.552 88.4133 20.552C90.2479 20.552 91.6773 21.1813 92.7013 22.44ZM87.7733 31.144C88.3279 31.72 89.0213 32.008 89.8533 32.008C90.7066 32.008 91.3893 31.72 91.9013 31.144C92.4346 30.568 92.7013 29.8533 92.7013 29C92.7013 28.1467 92.4346 27.432 91.9013 26.856C91.3893 26.28 90.7066 25.992 89.8533 25.992C89.0213 25.992 88.3279 26.28 87.7733 26.856C87.2613 27.432 87.0053 28.1467 87.0053 29C87.0053 29.8533 87.2613 30.568 87.7733 31.144ZM111.404 20.552C113.196 20.552 114.604 21.1707 115.628 22.408C116.673 23.6453 117.196 25.4267 117.196 27.752V37H111.276V28.392C111.276 26.9627 110.614 26.248 109.292 26.248C108.588 26.248 108.044 26.472 107.66 26.92C107.297 27.368 107.116 27.9867 107.116 28.776V37H101.196V21H107.116V22.568C108.118 21.224 109.548 20.552 111.404 20.552ZM130.451 22.44V14.6H136.371V37H130.451V35.56C129.427 36.8187 127.998 37.448 126.163 37.448C124.009 37.448 122.249 36.648 120.883 35.048C119.518 33.4693 118.835 31.4533 118.835 29C118.835 26.5467 119.518 24.5307 120.883 22.952C122.249 21.352 124.009 20.552 126.163 20.552C127.998 20.552 129.427 21.1813 130.451 22.44ZM125.523 31.144C126.078 31.72 126.771 32.008 127.603 32.008C128.457 32.008 129.139 31.72 129.651 31.144C130.185 30.568 130.451 29.8533 130.451 29C130.451 28.1467 130.185 27.432 129.651 26.856C129.139 26.28 128.457 25.992 127.603 25.992C126.771 25.992 126.078 26.28 125.523 26.856C125.011 27.432 124.755 28.1467 124.755 29C124.755 29.8533 125.011 30.568 125.523 31.144Z" fill="white"/>
<path d="M151.426 24.84V14.6H157.826V37H152.706L145.666 26.76V37H139.266V14.6H144.386L151.426 24.84ZM171.608 22.44V21H177.528V37H171.608V35.56C170.584 36.8187 169.154 37.448 167.32 37.448C165.165 37.448 163.405 36.648 162.04 35.048C160.674 33.4693 159.992 31.4533 159.992 29C159.992 26.5467 160.674 24.5307 162.04 22.952C163.405 21.352 165.165 20.552 167.32 20.552C169.154 20.552 170.584 21.1813 171.608 22.44ZM166.68 31.144C167.234 31.72 167.928 32.008 168.76 32.008C169.613 32.008 170.296 31.72 170.808 31.144C171.341 30.568 171.608 29.8533 171.608 29C171.608 28.1467 171.341 27.432 170.808 26.856C170.296 26.28 169.613 25.992 168.76 25.992C167.928 25.992 167.234 26.28 166.68 26.856C166.168 27.432 165.912 28.1467 165.912 29C165.912 29.8533 166.168 30.568 166.68 31.144ZM198.982 20.552C200.859 20.552 202.31 21.1387 203.334 22.312C204.379 23.464 204.902 25.1173 204.902 27.272V37H198.982V28.072C198.982 26.856 198.438 26.248 197.35 26.248C196.091 26.248 195.462 27.0373 195.462 28.616V37H189.542V28.072C189.542 26.856 188.998 26.248 187.91 26.248C186.651 26.248 186.022 27.0373 186.022 28.616V37H180.102V21H186.022V22.504C187.067 21.2027 188.518 20.552 190.374 20.552C192.208 20.552 193.542 21.2133 194.374 22.536C195.526 21.2133 197.062 20.552 198.982 20.552ZM223.131 31.016H212.507C213.019 32.0827 214.107 32.616 215.771 32.616C216.731 32.616 217.637 32.2747 218.491 31.592L222.363 34.856C220.763 36.584 218.501 37.448 215.579 37.448C212.869 37.448 210.672 36.6587 208.987 35.08C207.344 33.48 206.523 31.4747 206.523 29.064C206.523 26.632 207.323 24.6053 208.923 22.984C210.544 21.3627 212.581 20.552 215.035 20.552C217.467 20.552 219.461 21.352 221.019 22.952C222.597 24.5307 223.387 26.5253 223.387 28.936C223.387 29.5973 223.301 30.2907 223.131 31.016ZM212.411 27.208H217.787C217.445 25.928 216.581 25.288 215.195 25.288C213.808 25.288 212.88 25.928 212.411 27.208Z" fill="#E34449"/>
<path d="M0.0530777 42.6815V10.4692L6.89819 16.1064V38.655L29.0442 24.9648L35.4866 28.5887L8.50881 46.3054L0.0530777 42.6815Z" fill="url(#paint0_linear_1_1608)"/>
<path d="M41.4387 32.1497L13.542 48.2559L15.0013 39.5092L34.529 28.2349L11.9487 15.6997L11.7184 8.8585L41.4387 23.5L41.4387 32.1497Z" fill="url(#paint1_linear_1_1608)"/>
<path d="M14.3798 2.00279L41.2261 19.8047L32.7451 22.3942L13.9527 9.93287L12.938 35.031L6.76548 38.9865L6.68656 7.04724L14.3798 2.00279Z" fill="url(#paint2_linear_1_1608)"/>
<defs>
<linearGradient id="paint0_linear_1_1608" x1="17.7698" y1="33.8232" x2="33.4734" y2="28.186" gradientUnits="userSpaceOnUse">
<stop stop-color="#E34449"/>
<stop offset="1" stop-color="#8C1E25"/>
</linearGradient>
<linearGradient id="paint1_linear_1_1608" x1="24.9087" y1="21.2357" x2="12.175" y2="10.4547" gradientUnits="userSpaceOnUse">
<stop stop-color="#E34449"/>
<stop offset="1" stop-color="#8C1E25"/>
</linearGradient>
<linearGradient id="paint2_linear_1_1608" x1="11.9715" y1="21.6638" x2="7.99115" y2="37.8667" gradientUnits="userSpaceOnUse">
<stop stop-color="#E34449"/>
<stop offset="1" stop-color="#8C1E25"/>
</linearGradient>
</defs>
</svg>
