<svg width="24" height="18" viewBox="0 0 24 18" fill="none" xmlns="http://www.w3.org/2000/svg">
<g clip-path="url(#clip0_7_3468)">
<g clip-path="url(#clip1_7_3468)">
<path d="M-0.413818 -0.204546H24.4138V18.2045H-0.413818V-0.204546Z" fill="#012169"/>
<path d="M2.49566 -0.204546L11.9612 6.73722L21.3879 -0.204546H24.4138V2.1733L15.1034 9.03835L24.4138 15.8651V18.2045H21.3103L12 11.3395L2.72842 18.2045H-0.413818V15.9034L8.85773 9.0767L-0.413818 2.25V-0.204546H2.49566Z" fill="white"/>
<path d="M16.0345 10.5724L24.4138 16.6705V18.2045L13.9008 10.5724H16.0345ZM8.89653 11.3395L9.12929 12.6818L1.68101 18.2045H-0.413818L8.89653 11.3395ZM24.4138 -0.204546V-0.0894892L14.7543 7.12074L14.8319 5.43324L22.4741 -0.204546H24.4138ZM-0.413818 -0.204546L8.85773 6.54545H6.53015L-0.413818 1.40625V-0.204546Z" fill="#C8102E"/>
<path d="M8.93532 -0.204546V18.2045H15.1422V-0.204546H8.93532ZM-0.413818 5.93182V12.0682H24.4138V5.93182H-0.413818Z" fill="white"/>
<path d="M-0.413818 7.19744V10.8793H24.4138V7.19744H-0.413818ZM10.1767 -0.204546V18.2045H13.9008V-0.204546H10.1767Z" fill="#C8102E"/>
</g>
</g>
<defs>
<clipPath id="clip0_7_3468">
<rect width="24" height="18" rx="1" fill="white"/>
</clipPath>
<clipPath id="clip1_7_3468">
<rect width="24.8276" height="18.4091" fill="white" transform="translate(-0.413818 -0.204546)"/>
</clipPath>
</defs>
</svg>
