<svg width="50" height="50" viewBox="0 0 50 50" fill="none" xmlns="http://www.w3.org/2000/svg">
<rect width="50" height="50" rx="5" fill="#F5F5F5"/>
<g opacity="0.4">
<path d="M35 36.5H15V34C15 32.3424 15.6585 30.7527 16.8306 29.5806C18.0027 28.4085 19.5924 27.75 21.25 27.75H28.75C30.4076 27.75 31.9973 28.4085 33.1694 29.5806C34.3415 30.7527 35 32.3424 35 34V36.5ZM25 25.25C24.0151 25.25 23.0398 25.056 22.1299 24.6791C21.2199 24.3022 20.3931 23.7497 19.6967 23.0533C19.0003 22.3569 18.4478 21.5301 18.0709 20.6201C17.694 19.7102 17.5 18.7349 17.5 17.75C17.5 16.7651 17.694 15.7898 18.0709 14.8799C18.4478 13.9699 19.0003 13.1431 19.6967 12.4467C20.3931 11.7503 21.2199 11.1978 22.1299 10.8209C23.0398 10.444 24.0151 10.25 25 10.25C26.9891 10.25 28.8968 11.0402 30.3033 12.4467C31.7098 13.8532 32.5 15.7609 32.5 17.75C32.5 19.7391 31.7098 21.6468 30.3033 23.0533C28.8968 24.4598 26.9891 25.25 25 25.25V25.25Z" fill="#2D2D2D"/>
</g>
</svg>
